-  
http://www.Speed.Cd
  
http://www.Speed.Cd       the fast  and The Hottest Private Tracker on the net

(((--Registration is Open!!--)))

Please Seed back to make the speed Faster!!!

and don't forget to visit .......http://www.Speed.Cd  ......
-


Ted meets Audrey, the girl of his dreams. But they both live in a treeless
world, yet Audrey dreams of seeing a real one. Ted sets out to find the
mythical creature who protects the trees and bring one home to Audrey.


General
Complete name                  : Dr.Seuss.The.Lorax.2012.DVDRip.LiNE.XviD.AC3.HQ.Hive-CM8.avi
Format                         : AVI
Format/Info                    : Audio Video Interleave
File size                      : 986 MiB
Duration                       : 1h 22mn
Overall bit rate               : 1 665 Kbps
Writing application            : Nandub v1.0rc2
Writing library                : Nandub build 1853/release

Video
ID                             : 0
Format                         : MPEG-4 Visual
Format profile                 : Advanced Simple@L5
Format settings, BVOP          : 2
Format settings, QPel          : Yes
Format settings, GMC           : No warppoints
Format settings, Matrix        : Default (H.263)
Muxing mode                    : Packed bitstream
Codec ID                       : XVID
Codec ID/Hint                  : XviD
Duration                       : 1h 22mn
Bit rate                       : 1 399 Kbps
Width                          : 720 pixels
Height                         : 384 pixels
Display aspect ratio           : 1.85:1
Frame rate                     : 25.000 fps
Color space                    : YUV
Chroma subsampling             : 4:2:0
Bit depth                      : 8 bits
Scan type                      : Progressive
Compression mode               : Lossy
Bits/(Pixel*Frame)             : 0.202
Stream size                    : 828 MiB (84%)
Writing library                : XviD 1.2.1 (UTC 2008-12-04)

Video: 720x384 @bitrate 1400 2pass
Audio: English AC3 2.0 LINE
Sample: Yes, included

Audio
ID                             : 1
Format                         : AC-3
Format/Info                    : Audio Coding 3
Mode extension                 : CM (complete main)
Format settings, Endianness    : Big
Codec ID                       : 2000
Duration                       : 1h 22mn
Bit rate mode                  : Constant
Bit rate                       : 256 Kbps
Channel(s)                     : 2 channels
Channel positions              : Front: L R
Sampling rate                  : 48.0 KHz
Bit depth                      : 16 bits
Compression mode               : Lossy
Delay relative to video        : 14ms
Stream size                    : 152 MiB (15%)
Alignment                      : Split accross interleaves
Interleave, duration           : 40 ms (1.00 video frame)
Interleave, preload duration   : 500 ms

Screenshot: 
http://lookpic.com/O/i2/1222/0qX4HkBn.png 
http://lookpic.com/O/i2/1121/a13t9AXn.png 
http://lookpic.com/O/i2/1684/mr2AxaX.png 
http://lookpic.com/O/i2/488/kHNKLTj.png 
http://lookpic.com/O/i2/1041/SzEi6Bak.png